<?xml version="1.0" encoding="UTF-8" standalone="no"?>
<!DOCTYPE svg PUBLIC "-//W3C//DTD SVG 1.1//EN"
 "http://www.w3.org/Graphics/SVG/1.1/DTD/svg11.dtd">
<!-- Generated by graphviz version 2.38.0 (20140413.2041)
 -->
<!-- Title: Four Pages: 1 -->
<svg width="464pt" height="332pt"
 viewBox="0.00 0.00 464.09 332.00" xmlns="http://www.w3.org/2000/svg" xmlns:xlink="http://www.w3.org/1999/xlink">
<g id="graph0" class="graph" transform="scale(1 1) rotate(0) translate(4 328)">
<title>Four</title>
<polygon fill="white" stroke="none" points="-4,4 -4,-328 460.095,-328 460.095,4 -4,4"/>
<!-- b0 -->
<g id="node1" class="node"><title>b0</title>
<ellipse fill="none" stroke="black" cx="233.547" cy="-18" rx="27" ry="18"/>
<text text-anchor="middle" x="233.547" y="-14.3" font-family="Times New Roman,serif" font-size="14.00">{}</text>
</g>
<!-- b1 -->
<g id="node2" class="node"><title>b1</title>
<ellipse fill="none" stroke="black" cx="117.547" cy="-90" rx="27" ry="18"/>
<text text-anchor="middle" x="117.547" y="-86.3" font-family="Times New Roman,serif" font-size="14.00">{1}</text>
</g>
<!-- b1&#45;&gt;b0 -->
<g id="edge1" class="edge"><title>b1&#45;&gt;b0</title>
<path fill="none" stroke="black" d="M136.963,-77.2836C158.376,-64.362 192.63,-43.6915 214.068,-30.7547"/>
</g>
<!-- b2 -->
<g id="node3" class="node"><title>b2</title>
<ellipse fill="none" stroke="black" cx="197.547" cy="-90" rx="27" ry="18"/>
<text text-anchor="middle" x="197.547" y="-86.3" font-family="Times New Roman,serif" font-size="14.00">{2}</text>
</g>
<!-- b2&#45;&gt;b0 -->
<g id="edge2" class="edge"><title>b2&#45;&gt;b0</title>
<path fill="none" stroke="black" d="M205.897,-72.7646C211.713,-61.456 219.437,-46.4367 225.243,-35.1473"/>
</g>
<!-- b3 -->
<g id="node4" class="node"><title>b3</title>
<ellipse fill="none" stroke="black" cx="30.5473" cy="-162" rx="30.5947" ry="18"/>
<text text-anchor="middle" x="30.5473" y="-158.3" font-family="Times New Roman,serif" font-size="14.00">{1,2}</text>
</g>
<!-- b3&#45;&gt;b1 -->
<g id="edge3" class="edge"><title>b3&#45;&gt;b1</title>
<path fill="none" stroke="black" d="M48.153,-146.834C63.5451,-134.45 85.7377,-116.594 100.853,-104.432"/>
</g>
<!-- b3&#45;&gt;b2 -->
<g id="edge4" class="edge"><title>b3&#45;&gt;b2</title>
<path fill="none" stroke="black" d="M54.4423,-150.501C59.4266,-148.334 64.6528,-146.08 69.5473,-144 106.293,-128.385 149.205,-110.736 174.835,-100.256"/>
</g>
<!-- b4 -->
<g id="node5" class="node"><title>b4</title>
<ellipse fill="none" stroke="black" cx="269.547" cy="-90" rx="27" ry="18"/>
<text text-anchor="middle" x="269.547" y="-86.3" font-family="Times New Roman,serif" font-size="14.00">{3}</text>
</g>
<!-- b4&#45;&gt;b0 -->
<g id="edge5" class="edge"><title>b4&#45;&gt;b0</title>
<path fill="none" stroke="black" d="M261.198,-72.7646C255.382,-61.456 247.658,-46.4367 241.852,-35.1473"/>
</g>
<!-- b5 -->
<g id="node6" class="node"><title>b5</title>
<ellipse fill="none" stroke="black" cx="109.547" cy="-162" rx="30.5947" ry="18"/>
<text text-anchor="middle" x="109.547" y="-158.3" font-family="Times New Roman,serif" font-size="14.00">{1,3}</text>
</g>
<!-- b5&#45;&gt;b1 -->
<g id="edge6" class="edge"><title>b5&#45;&gt;b1</title>
<path fill="none" stroke="black" d="M111.525,-143.697C112.765,-132.846 114.357,-118.917 115.593,-108.104"/>
</g>
<!-- b5&#45;&gt;b4 -->
<g id="edge7" class="edge"><title>b5&#45;&gt;b4</title>
<path fill="none" stroke="black" d="M133.455,-150.532C138.439,-148.363 143.661,-146.1 148.547,-144 186.241,-127.803 196.102,-124.763 233.547,-108 238.342,-105.854 243.462,-103.483 248.293,-101.211"/>
</g>
<!-- b6 -->
<g id="node7" class="node"><title>b6</title>
<ellipse fill="none" stroke="black" cx="267.547" cy="-162" rx="30.5947" ry="18"/>
<text text-anchor="middle" x="267.547" y="-158.3" font-family="Times New Roman,serif" font-size="14.00">{2,3}</text>
</g>
<!-- b6&#45;&gt;b2 -->
<g id="edge8" class="edge"><title>b6&#45;&gt;b2</title>
<path fill="none" stroke="black" d="M252.702,-146.155C240.662,-134.115 223.796,-117.248 211.892,-105.345"/>
</g>
<!-- b6&#45;&gt;b4 -->
<g id="edge9" class="edge"><title>b6&#45;&gt;b4</title>
<path fill="none" stroke="black" d="M268.042,-143.697C268.352,-132.846 268.75,-118.917 269.059,-108.104"/>
</g>
<!-- b7 -->
<g id="node8" class="node"><title>b7</title>
<ellipse fill="none" stroke="black" cx="81.5473" cy="-234" rx="37.8943" ry="18"/>
<text text-anchor="middle" x="81.5473" y="-230.3" font-family="Times New Roman,serif" font-size="14.00">{1,2,3}</text>
</g>
<!-- b7&#45;&gt;b3 -->
<g id="edge10" class="edge"><title>b7&#45;&gt;b3</title>
<path fill="none" stroke="black" d="M69.7187,-216.765C61.4795,-205.456 50.5368,-190.437 42.3118,-179.147"/>
</g>
<!-- b7&#45;&gt;b5 -->
<g id="edge11" class="edge"><title>b7&#45;&gt;b5</title>
<path fill="none" stroke="black" d="M88.3253,-216.055C92.7276,-205.049 98.4419,-190.764 102.832,-179.789"/>
</g>
<!-- b7&#45;&gt;b6 -->
<g id="edge12" class="edge"><title>b7&#45;&gt;b6</title>
<path fill="none" stroke="black" d="M110.73,-222.157C116.309,-220.101 122.105,-217.975 127.547,-216 172.343,-199.74 184.234,-197.531 228.547,-180 233.492,-178.044 238.741,-175.843 243.731,-173.69"/>
</g>
<!-- b8 -->
<g id="node9" class="node"><title>b8</title>
<ellipse fill="none" stroke="black" cx="344.547" cy="-90" rx="27" ry="18"/>
<text text-anchor="middle" x="344.547" y="-86.3" font-family="Times New Roman,serif" font-size="14.00">{4}</text>
</g>
<!-- b8&#45;&gt;b0 -->
<g id="edge13" class="edge"><title>b8&#45;&gt;b0</title>
<path fill="none" stroke="black" d="M325.466,-76.9666C305.134,-64.1451 273.129,-43.9616 252.751,-31.1107"/>
</g>
<!-- b9 -->
<g id="node10" class="node"><title>b9</title>
<ellipse fill="none" stroke="black" cx="188.547" cy="-162" rx="30.5947" ry="18"/>
<text text-anchor="middle" x="188.547" y="-158.3" font-family="Times New Roman,serif" font-size="14.00">{1,4}</text>
</g>
<!-- b9&#45;&gt;b1 -->
<g id="edge14" class="edge"><title>b9&#45;&gt;b1</title>
<path fill="none" stroke="black" d="M173.49,-146.155C161.278,-134.115 144.171,-117.248 132.097,-105.345"/>
</g>
<!-- b9&#45;&gt;b8 -->
<g id="edge15" class="edge"><title>b9&#45;&gt;b8</title>
<path fill="none" stroke="black" d="M212.24,-150.369C242.243,-136.906 293.528,-113.893 322.651,-100.825"/>
</g>
<!-- b10 -->
<g id="node11" class="node"><title>b10</title>
<ellipse fill="none" stroke="black" cx="346.547" cy="-162" rx="30.5947" ry="18"/>
<text text-anchor="middle" x="346.547" y="-158.3" font-family="Times New Roman,serif" font-size="14.00">{2,4}</text>
</g>
<!-- b10&#45;&gt;b2 -->
<g id="edge16" class="edge"><title>b10&#45;&gt;b2</title>
<path fill="none" stroke="black" d="M323.166,-150.055C300.308,-139.351 264.525,-122.579 233.547,-108 228.794,-105.763 223.691,-103.356 218.863,-101.077"/>
</g>
<!-- b10&#45;&gt;b8 -->
<g id="edge17" class="edge"><title>b10&#45;&gt;b8</title>
<path fill="none" stroke="black" d="M346.053,-143.697C345.743,-132.846 345.345,-118.917 345.036,-108.104"/>
</g>
<!-- b11 -->
<g id="node12" class="node"><title>b11</title>
<ellipse fill="none" stroke="black" cx="174.547" cy="-234" rx="37.8943" ry="18"/>
<text text-anchor="middle" x="174.547" y="-230.3" font-family="Times New Roman,serif" font-size="14.00">{1,2,4}</text>
</g>
<!-- b11&#45;&gt;b3 -->
<g id="edge18" class="edge"><title>b11&#45;&gt;b3</title>
<path fill="none" stroke="black" d="M149.134,-220.647C122.005,-207.459 79.412,-186.754 53.3347,-174.077"/>
</g>
<!-- b11&#45;&gt;b9 -->
<g id="edge19" class="edge"><title>b11&#45;&gt;b9</title>
<path fill="none" stroke="black" d="M177.936,-216.055C180.105,-205.211 182.911,-191.183 185.092,-180.275"/>
</g>
<!-- b11&#45;&gt;b10 -->
<g id="edge20" class="edge"><title>b11&#45;&gt;b10</title>
<path fill="none" stroke="black" d="M202.933,-221.99C229.934,-211.447 271.645,-194.974 307.547,-180 312.456,-177.953 317.688,-175.713 322.674,-173.55"/>
</g>
<!-- b12 -->
<g id="node13" class="node"><title>b12</title>
<ellipse fill="none" stroke="black" cx="425.547" cy="-162" rx="30.5947" ry="18"/>
<text text-anchor="middle" x="425.547" y="-158.3" font-family="Times New Roman,serif" font-size="14.00">{3,4}</text>
</g>
<!-- b12&#45;&gt;b4 -->
<g id="edge21" class="edge"><title>b12&#45;&gt;b4</title>
<path fill="none" stroke="black" d="M401.854,-150.369C371.851,-136.906 320.567,-113.893 291.444,-100.825"/>
</g>
<!-- b12&#45;&gt;b8 -->
<g id="edge22" class="edge"><title>b12&#45;&gt;b8</title>
<path fill="none" stroke="black" d="M408.764,-146.496C394.584,-134.242 374.416,-116.813 360.482,-104.771"/>
</g>
<!-- b13 -->
<g id="node14" class="node"><title>b13</title>
<ellipse fill="none" stroke="black" cx="267.547" cy="-234" rx="37.8943" ry="18"/>
<text text-anchor="middle" x="267.547" y="-230.3" font-family="Times New Roman,serif" font-size="14.00">{1,3,4}</text>
</g>
<!-- b13&#45;&gt;b5 -->
<g id="edge23" class="edge"><title>b13&#45;&gt;b5</title>
<path fill="none" stroke="black" d="M240.745,-221.125C210.634,-207.785 162.211,-186.332 133.375,-173.557"/>
</g>
<!-- b13&#45;&gt;b9 -->
<g id="edge24" class="edge"><title>b13&#45;&gt;b9</title>
<path fill="none" stroke="black" d="M250.405,-217.811C236.882,-205.828 218.146,-189.227 204.846,-177.442"/>
</g>
<!-- b13&#45;&gt;b12 -->
<g id="edge25" class="edge"><title>b13&#45;&gt;b12</title>
<path fill="none" stroke="black" d="M294.35,-221.125C324.461,-207.785 372.883,-186.332 401.719,-173.557"/>
</g>
<!-- b14 -->
<g id="node15" class="node"><title>b14</title>
<ellipse fill="none" stroke="black" cx="360.547" cy="-234" rx="37.8943" ry="18"/>
<text text-anchor="middle" x="360.547" y="-230.3" font-family="Times New Roman,serif" font-size="14.00">{2,3,4}</text>
</g>
<!-- b14&#45;&gt;b6 -->
<g id="edge26" class="edge"><title>b14&#45;&gt;b6</title>
<path fill="none" stroke="black" d="M341.278,-218.496C324.997,-206.242 301.841,-188.813 285.843,-176.771"/>
</g>
<!-- b14&#45;&gt;b10 -->
<g id="edge27" class="edge"><title>b14&#45;&gt;b10</title>
<path fill="none" stroke="black" d="M357.158,-216.055C354.99,-205.211 352.184,-191.183 350.002,-180.275"/>
</g>
<!-- b14&#45;&gt;b12 -->
<g id="edge28" class="edge"><title>b14&#45;&gt;b12</title>
<path fill="none" stroke="black" d="M375.297,-217.116C386.084,-205.499 400.635,-189.828 411.303,-178.34"/>
</g>
<!-- b15 -->
<g id="node16" class="node"><title>b15</title>
<ellipse fill="none" stroke="black" cx="220.547" cy="-306" rx="44.393" ry="18"/>
<text text-anchor="middle" x="220.547" y="-302.3" font-family="Times New Roman,serif" font-size="14.00">{1,2,3,4}</text>
</g>
<!-- b15&#45;&gt;b7 -->
<g id="edge29" class="edge"><title>b15&#45;&gt;b7</title>
<path fill="none" stroke="black" d="M193.747,-291.503C168.66,-278.87 131.454,-260.133 106.86,-247.748"/>
</g>
<!-- b15&#45;&gt;b11 -->
<g id="edge30" class="edge"><title>b15&#45;&gt;b11</title>
<path fill="none" stroke="black" d="M209.646,-288.411C202.313,-277.252 192.687,-262.604 185.37,-251.47"/>
</g>
<!-- b15&#45;&gt;b13 -->
<g id="edge31" class="edge"><title>b15&#45;&gt;b13</title>
<path fill="none" stroke="black" d="M231.686,-288.411C239.178,-277.252 249.013,-262.604 256.489,-251.47"/>
</g>
<!-- b15&#45;&gt;b14 -->
<g id="edge32" class="edge"><title>b15&#45;&gt;b14</title>
<path fill="none" stroke="black" d="M247.541,-291.503C272.967,-278.79 310.754,-259.897 335.518,-247.515"/>
</g>
</g>
</svg>
