<?xml version="1.0" encoding="UTF-8" standalone="no"?>
<!DOCTYPE svg PUBLIC "-//W3C//DTD SVG 1.1//EN"
 "http://www.w3.org/Graphics/SVG/1.1/DTD/svg11.dtd">
<!-- Generated by graphviz version 2.38.0 (20140413.2041)
 -->
<!-- Title: Four Pages: 1 -->
<svg width="440pt" height="332pt"
 viewBox="0.00 0.00 440.19 332.00" xmlns="http://www.w3.org/2000/svg" xmlns:xlink="http://www.w3.org/1999/xlink">
<g id="graph0" class="graph" transform="scale(1 1) rotate(0) translate(4 328)">
<title>Four</title>
<polygon fill="white" stroke="none" points="-4,4 -4,-328 436.195,-328 436.195,4 -4,4"/>
<!-- b0 -->
<g id="node1" class="node"><title>b0</title>
<ellipse fill="none" stroke="black" cx="215.597" cy="-18" rx="28.6953" ry="18"/>
<text text-anchor="middle" x="215.597" y="-14.3" font-family="Times New Roman,serif" font-size="14.00">0000</text>
</g>
<!-- b1 -->
<g id="node2" class="node"><title>b1</title>
<ellipse fill="none" stroke="black" cx="103.597" cy="-90" rx="28.6953" ry="18"/>
<text text-anchor="middle" x="103.597" y="-86.3" font-family="Times New Roman,serif" font-size="14.00">1000</text>
</g>
<!-- b1&#45;&gt;b0 -->
<g id="edge1" class="edge"><title>b1&#45;&gt;b0</title>
<path fill="none" stroke="black" d="M123.106,-76.8069C143.538,-64.0372 175.448,-44.0934 195.936,-31.2882"/>
</g>
<!-- b2 -->
<g id="node3" class="node"><title>b2</title>
<ellipse fill="none" stroke="black" cx="178.597" cy="-90" rx="28.6953" ry="18"/>
<text text-anchor="middle" x="178.597" y="-86.3" font-family="Times New Roman,serif" font-size="14.00">0100</text>
</g>
<!-- b2&#45;&gt;b0 -->
<g id="edge2" class="edge"><title>b2&#45;&gt;b0</title>
<path fill="none" stroke="black" d="M187.179,-72.7646C193.071,-61.6175 200.869,-46.865 206.806,-35.6334"/>
</g>
<!-- b3 -->
<g id="node4" class="node"><title>b3</title>
<ellipse fill="none" stroke="black" cx="28.5975" cy="-162" rx="28.6953" ry="18"/>
<text text-anchor="middle" x="28.5975" y="-158.3" font-family="Times New Roman,serif" font-size="14.00">1100</text>
</g>
<!-- b3&#45;&gt;b1 -->
<g id="edge3" class="edge"><title>b3&#45;&gt;b1</title>
<path fill="none" stroke="black" d="M44.1375,-146.496C57.0952,-134.402 75.4539,-117.267 88.3339,-105.246"/>
</g>
<!-- b3&#45;&gt;b2 -->
<g id="edge4" class="edge"><title>b3&#45;&gt;b2</title>
<path fill="none" stroke="black" d="M51.054,-150.52C79.332,-137.324 127.637,-114.781 155.987,-101.551"/>
</g>
<!-- b4 -->
<g id="node5" class="node"><title>b4</title>
<ellipse fill="none" stroke="black" cx="253.597" cy="-90" rx="28.6953" ry="18"/>
<text text-anchor="middle" x="253.597" y="-86.3" font-family="Times New Roman,serif" font-size="14.00">0010</text>
</g>
<!-- b4&#45;&gt;b0 -->
<g id="edge5" class="edge"><title>b4&#45;&gt;b0</title>
<path fill="none" stroke="black" d="M244.784,-72.7646C238.645,-61.456 230.492,-46.4367 224.363,-35.1473"/>
</g>
<!-- b5 -->
<g id="node6" class="node"><title>b5</title>
<ellipse fill="none" stroke="black" cx="103.597" cy="-162" rx="28.6953" ry="18"/>
<text text-anchor="middle" x="103.597" y="-158.3" font-family="Times New Roman,serif" font-size="14.00">1010</text>
</g>
<!-- b5&#45;&gt;b1 -->
<g id="edge6" class="edge"><title>b5&#45;&gt;b1</title>
<path fill="none" stroke="black" d="M103.597,-143.697C103.597,-132.846 103.597,-118.917 103.597,-108.104"/>
</g>
<!-- b5&#45;&gt;b4 -->
<g id="edge7" class="edge"><title>b5&#45;&gt;b4</title>
<path fill="none" stroke="black" d="M126.054,-150.52C154.332,-137.324 202.637,-114.781 230.987,-101.551"/>
</g>
<!-- b6 -->
<g id="node7" class="node"><title>b6</title>
<ellipse fill="none" stroke="black" cx="253.597" cy="-162" rx="28.6953" ry="18"/>
<text text-anchor="middle" x="253.597" y="-158.3" font-family="Times New Roman,serif" font-size="14.00">0110</text>
</g>
<!-- b6&#45;&gt;b2 -->
<g id="edge8" class="edge"><title>b6&#45;&gt;b2</title>
<path fill="none" stroke="black" d="M238.057,-146.496C225.1,-134.402 206.741,-117.267 193.861,-105.246"/>
</g>
<!-- b6&#45;&gt;b4 -->
<g id="edge9" class="edge"><title>b6&#45;&gt;b4</title>
<path fill="none" stroke="black" d="M253.597,-143.697C253.597,-132.846 253.597,-118.917 253.597,-108.104"/>
</g>
<!-- b7 -->
<g id="node8" class="node"><title>b7</title>
<ellipse fill="none" stroke="black" cx="103.597" cy="-234" rx="28.6953" ry="18"/>
<text text-anchor="middle" x="103.597" y="-230.3" font-family="Times New Roman,serif" font-size="14.00">1110</text>
</g>
<!-- b7&#45;&gt;b3 -->
<g id="edge10" class="edge"><title>b7&#45;&gt;b3</title>
<path fill="none" stroke="black" d="M88.0574,-218.496C75.0997,-206.402 56.741,-189.267 43.861,-177.246"/>
</g>
<!-- b7&#45;&gt;b5 -->
<g id="edge11" class="edge"><title>b7&#45;&gt;b5</title>
<path fill="none" stroke="black" d="M103.597,-215.697C103.597,-204.846 103.597,-190.917 103.597,-180.104"/>
</g>
<!-- b7&#45;&gt;b6 -->
<g id="edge12" class="edge"><title>b7&#45;&gt;b6</title>
<path fill="none" stroke="black" d="M126.054,-222.52C154.332,-209.324 202.637,-186.781 230.987,-173.551"/>
</g>
<!-- b8 -->
<g id="node9" class="node"><title>b8</title>
<ellipse fill="none" stroke="black" cx="328.597" cy="-90" rx="28.6953" ry="18"/>
<text text-anchor="middle" x="328.597" y="-86.3" font-family="Times New Roman,serif" font-size="14.00">0001</text>
</g>
<!-- b8&#45;&gt;b0 -->
<g id="edge13" class="edge"><title>b8&#45;&gt;b0</title>
<path fill="none" stroke="black" d="M308.914,-76.8069C288.3,-64.0372 256.105,-44.0934 235.434,-31.2882"/>
</g>
<!-- b9 -->
<g id="node10" class="node"><title>b9</title>
<ellipse fill="none" stroke="black" cx="178.597" cy="-162" rx="28.6953" ry="18"/>
<text text-anchor="middle" x="178.597" y="-158.3" font-family="Times New Roman,serif" font-size="14.00">1001</text>
</g>
<!-- b9&#45;&gt;b1 -->
<g id="edge14" class="edge"><title>b9&#45;&gt;b1</title>
<path fill="none" stroke="black" d="M163.057,-146.496C150.1,-134.402 131.741,-117.267 118.861,-105.246"/>
</g>
<!-- b9&#45;&gt;b8 -->
<g id="edge15" class="edge"><title>b9&#45;&gt;b8</title>
<path fill="none" stroke="black" d="M201.054,-150.52C229.332,-137.324 277.637,-114.781 305.987,-101.551"/>
</g>
<!-- b10 -->
<g id="node11" class="node"><title>b10</title>
<ellipse fill="none" stroke="black" cx="328.597" cy="-162" rx="28.6953" ry="18"/>
<text text-anchor="middle" x="328.597" y="-158.3" font-family="Times New Roman,serif" font-size="14.00">0101</text>
</g>
<!-- b10&#45;&gt;b2 -->
<g id="edge16" class="edge"><title>b10&#45;&gt;b2</title>
<path fill="none" stroke="black" d="M306.141,-150.52C277.863,-137.324 229.558,-114.781 201.207,-101.551"/>
</g>
<!-- b10&#45;&gt;b8 -->
<g id="edge17" class="edge"><title>b10&#45;&gt;b8</title>
<path fill="none" stroke="black" d="M328.597,-143.697C328.597,-132.846 328.597,-118.917 328.597,-108.104"/>
</g>
<!-- b11 -->
<g id="node12" class="node"><title>b11</title>
<ellipse fill="none" stroke="black" cx="178.597" cy="-234" rx="28.6953" ry="18"/>
<text text-anchor="middle" x="178.597" y="-230.3" font-family="Times New Roman,serif" font-size="14.00">1101</text>
</g>
<!-- b11&#45;&gt;b3 -->
<g id="edge18" class="edge"><title>b11&#45;&gt;b3</title>
<path fill="none" stroke="black" d="M156.141,-222.52C127.863,-209.324 79.5578,-186.781 51.2075,-173.551"/>
</g>
<!-- b11&#45;&gt;b9 -->
<g id="edge19" class="edge"><title>b11&#45;&gt;b9</title>
<path fill="none" stroke="black" d="M178.597,-215.697C178.597,-204.846 178.597,-190.917 178.597,-180.104"/>
</g>
<!-- b11&#45;&gt;b10 -->
<g id="edge20" class="edge"><title>b11&#45;&gt;b10</title>
<path fill="none" stroke="black" d="M201.054,-222.52C229.332,-209.324 277.637,-186.781 305.987,-173.551"/>
</g>
<!-- b12 -->
<g id="node13" class="node"><title>b12</title>
<ellipse fill="none" stroke="black" cx="403.597" cy="-162" rx="28.6953" ry="18"/>
<text text-anchor="middle" x="403.597" y="-158.3" font-family="Times New Roman,serif" font-size="14.00">0011</text>
</g>
<!-- b12&#45;&gt;b4 -->
<g id="edge21" class="edge"><title>b12&#45;&gt;b4</title>
<path fill="none" stroke="black" d="M381.141,-150.52C352.863,-137.324 304.558,-114.781 276.207,-101.551"/>
</g>
<!-- b12&#45;&gt;b8 -->
<g id="edge22" class="edge"><title>b12&#45;&gt;b8</title>
<path fill="none" stroke="black" d="M388.057,-146.496C375.1,-134.402 356.741,-117.267 343.861,-105.246"/>
</g>
<!-- b13 -->
<g id="node14" class="node"><title>b13</title>
<ellipse fill="none" stroke="black" cx="253.597" cy="-234" rx="28.6953" ry="18"/>
<text text-anchor="middle" x="253.597" y="-230.3" font-family="Times New Roman,serif" font-size="14.00">1011</text>
</g>
<!-- b13&#45;&gt;b5 -->
<g id="edge23" class="edge"><title>b13&#45;&gt;b5</title>
<path fill="none" stroke="black" d="M231.141,-222.52C202.863,-209.324 154.558,-186.781 126.207,-173.551"/>
</g>
<!-- b13&#45;&gt;b9 -->
<g id="edge24" class="edge"><title>b13&#45;&gt;b9</title>
<path fill="none" stroke="black" d="M238.057,-218.496C225.1,-206.402 206.741,-189.267 193.861,-177.246"/>
</g>
<!-- b13&#45;&gt;b12 -->
<g id="edge25" class="edge"><title>b13&#45;&gt;b12</title>
<path fill="none" stroke="black" d="M276.054,-222.52C304.332,-209.324 352.637,-186.781 380.987,-173.551"/>
</g>
<!-- b14 -->
<g id="node15" class="node"><title>b14</title>
<ellipse fill="none" stroke="black" cx="328.597" cy="-234" rx="28.6953" ry="18"/>
<text text-anchor="middle" x="328.597" y="-230.3" font-family="Times New Roman,serif" font-size="14.00">0111</text>
</g>
<!-- b14&#45;&gt;b6 -->
<g id="edge26" class="edge"><title>b14&#45;&gt;b6</title>
<path fill="none" stroke="black" d="M313.057,-218.496C300.1,-206.402 281.741,-189.267 268.861,-177.246"/>
</g>
<!-- b14&#45;&gt;b10 -->
<g id="edge27" class="edge"><title>b14&#45;&gt;b10</title>
<path fill="none" stroke="black" d="M328.597,-215.697C328.597,-204.846 328.597,-190.917 328.597,-180.104"/>
</g>
<!-- b14&#45;&gt;b12 -->
<g id="edge28" class="edge"><title>b14&#45;&gt;b12</title>
<path fill="none" stroke="black" d="M344.138,-218.496C357.095,-206.402 375.454,-189.267 388.334,-177.246"/>
</g>
<!-- b15 -->
<g id="node16" class="node"><title>b15</title>
<ellipse fill="none" stroke="black" cx="215.597" cy="-306" rx="28.6953" ry="18"/>
<text text-anchor="middle" x="215.597" y="-302.3" font-family="Times New Roman,serif" font-size="14.00">1111</text>
</g>
<!-- b15&#45;&gt;b7 -->
<g id="edge29" class="edge"><title>b15&#45;&gt;b7</title>
<path fill="none" stroke="black" d="M196.089,-292.807C175.657,-280.037 143.747,-260.093 123.259,-247.288"/>
</g>
<!-- b15&#45;&gt;b11 -->
<g id="edge30" class="edge"><title>b15&#45;&gt;b11</title>
<path fill="none" stroke="black" d="M207.016,-288.765C201.124,-277.618 193.326,-262.865 187.389,-251.633"/>
</g>
<!-- b15&#45;&gt;b13 -->
<g id="edge31" class="edge"><title>b15&#45;&gt;b13</title>
<path fill="none" stroke="black" d="M224.411,-288.765C230.55,-277.456 238.703,-262.437 244.832,-251.147"/>
</g>
<!-- b15&#45;&gt;b14 -->
<g id="edge32" class="edge"><title>b15&#45;&gt;b14</title>
<path fill="none" stroke="black" d="M235.281,-292.807C255.894,-280.037 288.09,-260.093 308.761,-247.288"/>
</g>
</g>
</svg>
